ffmpeg started on 2026-01-10 at 20:49:33
Report written to "D:\Convert\FFMetrics\reports\psnr_report-6.txt"
Log level: 32
Command line:
ffmpeg -hide_banner -nostdin -r 25/1 -i "F:\\Convert\\files\\FBS NF 124 (1080P AVC)_HEVC(71).mkv" -r 25/1 -i "F:\\Convert\\files\\FBS NF 124 (1080P AVC).mp4" -lavfi "[0:v]settb=AVTB,setpts=PTS-STARTPTS,format=pix_fmts=yuv420p10le,fps=25/1,scale=1920:804:flags=lanczos:param0=3:out_range=limited:out_color_matrix=bt709:out_chroma_loc=left,setsar=1/1,setdar=(1920/804)*(1/1),colorspace=format=yuv420p10:range=tv:primaries=bt709:trc=bt709:space=bt709:fast=0[main];[1:v]settb=AVTB,setpts=PTS-STARTPTS,format=pix_fmts=yuv420p,fps=25/1,scale=1920:804:flags=lanczos:param0=3:out_range=limited:out_color_matrix=bt709:out_chroma_loc=left,setsar=1.000,setdar=2.388,colorspace=format=yuv420p:range=tv:primaries=bt709:trc=bt709:space=bt709:fast=0[ref];[main][ref]psnr=eof_action=endall:stats_file='D\\:/Convert/FFMetrics/logs/psnr_logfile-6.txt'" -f null -
Input #0, matroska,webm, from 'F:\Convert\files\FBS NF 124 (1080P AVC)_HEVC(71).mkv':
  Metadata:
    COMPATIBLE_BRANDS: mp42mp41
    MAJOR_BRAND     : mp42
    MINOR_VERSION   : 0
    ENCODER         : Lavf61.7.100
  Duration: 00:22:02.88, start: -0.021000, bitrate: 3951 kb/s
  Stream #0:0(eng): Video: hevc (Main 10), yuv420p10le(tv, bt709, progressive), 1920x804 [SAR 1:1 DAR 160:67], 25 fps, 25 tbr, 1k tbn (default)
      Metadata:
        HANDLER_NAME    : Mainconcept Video Media Handler
        VENDOR_ID       : [0][0][0][0]
        ENCODER         : Lavc61.19.100 libx265
        BPS             : 3757470
        DURATION        : 00:22:02.840000000
        NUMBER_OF_FRAMES: 33071
        NUMBER_OF_BYTES : 621316579
        _STATISTICS_WRITING_APP: mkvpropedit v94.0 ('Initiate') 64-bit
        _STATISTICS_WRITING_DATE_UTC: 2026-01-10 17:46:24
        _STATISTICS_TAGS: BPS DURATION NUMBER_OF_FRAMES NUMBER_OF_BYTES
  Stream #0:1(eng): Audio: aac (LC), 48000 Hz, stereo, fltp (default)
      Metadata:
        HANDLER_NAME    : #Mainconcept MP4 Sound Media Handler
        VENDOR_ID       : [0][0][0][0]
        ENCODER         : Lavc61.19.100 aac
        BPS             : 189986
        DURATION        : 00:22:02.858000000
        NUMBER_OF_FRAMES: 62010
        NUMBER_OF_BYTES : 31415714
        _STATISTICS_WRITING_APP: mkvpropedit v94.0 ('Initiate') 64-bit
        _STATISTICS_WRITING_DATE_UTC: 2026-01-10 17:46:24
        _STATISTICS_TAGS: BPS DURATION NUMBER_OF_FRAMES NUMBER_OF_BYTES
Input #1, mov,mp4,m4a,3gp,3g2,mj2, from 'F:\Convert\files\FBS NF 124 (1080P AVC).mp4':
  Metadata:
    major_brand     : mp42
    minor_version   : 0
    compatible_brands: mp42mp41
    creation_time   : 2024-12-09T14:39:16.000000Z
  Duration: 00:22:02.84, start: 0.000000, bitrate: 5643 kb/s
  Stream #1:0[0x1](eng): Video: h264 (Main) (avc1 / 0x31637661), yuv420p(tv, bt709, progressive), 1920x804, 5513 kb/s, 25 fps, 25 tbr, 25k tbn (default)
      Metadata:
        creation_time   : 2024-12-09T14:39:16.000000Z
        handler_name    : Mainconcept Video Media Handler
        vendor_id       : [0][0][0][0]
        encoder         : AVC Coding
  Stream #1:1[0x2](eng): Audio: aac (LC) (mp4a / 0x6134706D), 48000 Hz, stereo, fltp, 125 kb/s (default)
      Metadata:
        creation_time   : 2024-12-09T14:39:16.000000Z
        handler_name    : #Mainconcept MP4 Sound Media Handler
        vendor_id       : [0][0][0][0]
Stream mapping:
  Stream #0:0 (hevc) -> settb:default
  Stream #1:0 (h264) -> settb:default
  psnr:default -> Stream #0:0 (wrapped_avframe)
  Stream #0:1 -> #0:1 (aac (native) -> pcm_s16le (native))
Output #0, null, to 'pipe:':
  Metadata:
    COMPATIBLE_BRANDS: mp42mp41
    MAJOR_BRAND     : mp42
    MINOR_VERSION   : 0
    encoder         : Lavf61.7.100
  Stream #0:0: Video: wrapped_avframe, yuv420p10le(tv, bt709, progressive), 1920x804 [SAR 2881:2880 DAR 43:18], q=2-31, 200 kb/s, 25 fps, 25 tbn
      Metadata:
        encoder         : Lavc61.19.100 wrapped_avframe
  Stream #0:1(eng): Audio: pcm_s16le, 48000 Hz, stereo, s16, 1536 kb/s (default)
      Metadata:
        HANDLER_NAME    : #Mainconcept MP4 Sound Media Handler
        VENDOR_ID       : [0][0][0][0]
        _STATISTICS_TAGS: BPS DURATION NUMBER_OF_FRAMES NUMBER_OF_BYTES
        BPS             : 189986
        DURATION        : 00:22:02.858000000
        NUMBER_OF_FRAMES: 62010
        NUMBER_OF_BYTES : 31415714
        _STATISTICS_WRITING_APP: mkvpropedit v94.0 ('Initiate') 64-bit
        _STATISTICS_WRITING_DATE_UTC: 2026-01-10 17:46:24
        encoder         : Lavc61.19.100 pcm_s16le
frame=  189 fps=0.0 q=-0.0 size=N/A time=00:00:07.56 bitrate=N/A speed=14.5x    frame=  294 fps=285 q=-0.0 size=N/A time=00:00:11.76 bitrate=N/A speed=11.4x    frame=  431 fps=279 q=-0.0 size=N/A time=00:00:17.24 bitrate=N/A speed=11.2x    frame=  626 fps=303 q=-0.0 size=N/A time=00:00:25.04 bitrate=N/A speed=12.1x    frame=  857 fps=333 q=-0.0 size=N/A time=00:00:34.28 bitrate=N/A speed=13.3x    frame= 1141 fps=368 q=-0.0 size=N/A time=00:00:45.64 bitrate=N/A speed=14.7x    frame= 1370 fps=379 q=-0.0 size=N/A time=00:00:54.80 bitrate=N/A speed=15.2x    frame= 1502 fps=364 q=-0.0 size=N/A time=00:01:00.08 bitrate=N/A speed=14.6x    frame= 1642 fps=353 q=-0.0 size=N/A time=00:01:05.68 bitrate=N/A speed=14.1x    frame= 1795 fps=348 q=-0.0 size=N/A time=00:01:11.80 bitrate=N/A speed=13.9x    frame= 1979 fps=349 q=-0.0 size=N/A time=00:01:19.16 bitrate=N/A speed=  14x    frame= 2196 fps=355 q=-0.0 size=N/A time=00:01:27.84 bitrate=N/A speed=14.2x    frame= 2378 fps=355 q=-0.0 size=N/A time=00:01:35.12 bitrate=N/A speed=14.2x    frame= 2554 fps=354 q=-0.0 size=N/A time=00:01:42.16 bitrate=N/A speed=14.2x    frame= 2718 fps=351 q=-0.0 size=N/A time=00:01:48.72 bitrate=N/A speed=14.1x    frame= 2867 fps=348 q=-0.0 size=N/A time=00:01:54.68 bitrate=N/A speed=13.9x    frame= 3026 fps=345 q=-0.0 size=N/A time=00:02:01.04 bitrate=N/A speed=13.8x    frame= 3162 fps=341 q=-0.0 size=N/A time=00:02:06.48 bitrate=N/A speed=13.6x    frame= 3338 fps=341 q=-0.0 size=N/A time=00:02:13.52 bitrate=N/A speed=13.6x    frame= 3535 fps=343 q=-0.0 size=N/A time=00:02:21.40 bitrate=N/A speed=13.7x    frame= 3746 fps=346 q=-0.0 size=N/A time=00:02:29.84 bitrate=N/A speed=13.8x    frame= 3860 fps=340 q=-0.0 size=N/A time=00:02:34.40 bitrate=N/A speed=13.6x    frame= 3992 fps=336 q=-0.0 size=N/A time=00:02:39.68 bitrate=N/A speed=13.5x    frame= 4118 fps=333 q=-0.0 size=N/A time=00:02:44.72 bitrate=N/A speed=13.3x    frame= 4251 fps=330 q=-0.0 size=N/A time=00:02:50.04 bitrate=N/A speed=13.2x    frame= 4385 fps=327 q=-0.0 size=N/A time=00:02:55.40 bitrate=N/A speed=13.1x    frame= 4514 fps=324 q=-0.0 size=N/A time=00:03:00.56 bitrate=N/A speed=  13x    frame= 4666 fps=323 q=-0.0 size=N/A time=00:03:06.64 bitrate=N/A speed=12.9x    frame= 4772 fps=319 q=-0.0 size=N/A time=00:03:10.88 bitrate=N/A speed=12.8x    frame= 4931 fps=319 q=-0.0 size=N/A time=00:03:17.24 bitrate=N/A speed=12.7x    frame= 5128 fps=321 q=-0.0 size=N/A time=00:03:25.12 bitrate=N/A speed=12.8x    frame= 5318 fps=322 q=-0.0 size=N/A time=00:03:32.72 bitrate=N/A speed=12.9x    frame= 5439 fps=320 q=-0.0 size=N/A time=00:03:37.56 bitrate=N/A speed=12.8x    frame= 5595 fps=319 q=-0.0 size=N/A time=00:03:43.80 bitrate=N/A speed=12.8x    frame= 5695 fps=316 q=-0.0 size=N/A time=00:03:47.80 bitrate=N/A speed=12.6x    frame= 5814 fps=313 q=-0.0 size=N/A time=00:03:52.56 bitrate=N/A speed=12.5x    frame= 5983 fps=314 q=-0.0 size=N/A time=00:03:59.32 bitrate=N/A speed=12.5x    frame= 6142 fps=313 q=-0.0 size=N/A time=00:04:05.68 bitrate=N/A speed=12.5x    frame= 6328 fps=315 q=-0.0 size=N/A time=00:04:13.12 bitrate=N/A speed=12.6x    frame= 6511 fps=316 q=-0.0 size=N/A time=00:04:20.44 bitrate=N/A speed=12.6x    frame= 6688 fps=316 q=-0.0 size=N/A time=00:04:27.52 bitrate=N/A speed=12.7x    frame= 6842 fps=316 q=-0.0 size=N/A time=00:04:33.68 bitrate=N/A speed=12.6x    frame= 7028 fps=317 q=-0.0 size=N/A time=00:04:41.12 bitrate=N/A speed=12.7x    frame= 7187 fps=317 q=-0.0 size=N/A time=00:04:47.48 bitrate=N/A speed=12.7x    frame= 7353 fps=317 q=-0.0 size=N/A time=00:04:54.12 bitrate=N/A speed=12.7x    frame= 7549 fps=318 q=-0.0 size=N/A time=00:05:01.96 bitrate=N/A speed=12.7x    frame= 7761 fps=320 q=-0.0 size=N/A time=00:05:10.44 bitrate=N/A speed=12.8x    frame= 7945 fps=321 q=-0.0 size=N/A time=00:05:17.80 bitrate=N/A speed=12.8x    frame= 8098 fps=321 q=-0.0 size=N/A time=00:05:23.92 bitrate=N/A speed=12.8x    frame= 8230 fps=319 q=-0.0 size=N/A time=00:05:29.20 bitrate=N/A speed=12.8x    frame= 8391 fps=319 q=-0.0 size=N/A time=00:05:35.64 bitrate=N/A speed=12.8x    frame= 8568 fps=320 q=-0.0 size=N/A time=00:05:42.72 bitrate=N/A speed=12.8x    frame= 8728 fps=319 q=-0.0 size=N/A time=00:05:49.12 bitrate=N/A speed=12.8x    frame= 8862 fps=318 q=-0.0 size=N/A time=00:05:54.48 bitrate=N/A speed=12.7x    frame= 9072 fps=320 q=-0.0 size=N/A time=00:06:02.88 bitrate=N/A speed=12.8x    frame= 9262 fps=321 q=-0.0 size=N/A time=00:06:10.48 bitrate=N/A speed=12.8x    frame= 9431 fps=321 q=-0.0 size=N/A time=00:06:17.24 bitrate=N/A speed=12.8x    frame= 9611 fps=321 q=-0.0 size=N/A time=00:06:24.44 bitrate=N/A speed=12.9x    frame= 9814 fps=323 q=-0.0 size=N/A time=00:06:32.56 bitrate=N/A speed=12.9x    frame= 9997 fps=323 q=-0.0 size=N/A time=00:06:39.88 bitrate=N/A speed=12.9x    frame=10187 fps=324 q=-0.0 size=N/A time=00:06:47.48 bitrate=N/A speed=  13x    frame=10344 fps=323 q=-0.0 size=N/A time=00:06:53.76 bitrate=N/A speed=12.9x    frame=10521 fps=324 q=-0.0 size=N/A time=00:07:00.84 bitrate=N/A speed=  13x    frame=10691 fps=324 q=-0.0 size=N/A time=00:07:07.64 bitrate=N/A speed=  13x    frame=10878 fps=325 q=-0.0 size=N/A time=00:07:15.12 bitrate=N/A speed=  13x    frame=11065 fps=325 q=-0.0 size=N/A time=00:07:22.60 bitrate=N/A speed=  13x    frame=11256 fps=326 q=-0.0 size=N/A time=00:07:30.24 bitrate=N/A speed=  13x    frame=11400 fps=325 q=-0.0 size=N/A time=00:07:36.00 bitrate=N/A speed=  13x    frame=11546 fps=325 q=-0.0 size=N/A time=00:07:41.84 bitrate=N/A speed=  13x    frame=11740 fps=325 q=-0.0 size=N/A time=00:07:49.60 bitrate=N/A speed=  13x    frame=11904 fps=325 q=-0.0 size=N/A time=00:07:56.16 bitrate=N/A speed=  13x    frame=12059 fps=325 q=-0.0 size=N/A time=00:08:02.36 bitrate=N/A speed=  13x    frame=12224 fps=325 q=-0.0 size=N/A time=00:08:08.96 bitrate=N/A speed=  13x    frame=12407 fps=325 q=-0.0 size=N/A time=00:08:16.28 bitrate=N/A speed=  13x    frame=12591 fps=326 q=-0.0 size=N/A time=00:08:23.64 bitrate=N/A speed=  13x    frame=12771 fps=326 q=-0.0 size=N/A time=00:08:30.84 bitrate=N/A speed=  13x    frame=12921 fps=325 q=-0.0 size=N/A time=00:08:36.84 bitrate=N/A speed=  13x    frame=13139 fps=327 q=-0.0 size=N/A time=00:08:45.56 bitrate=N/A speed=13.1x    frame=13314 fps=327 q=-0.0 size=N/A time=00:08:52.56 bitrate=N/A speed=13.1x    frame=13499 fps=327 q=-0.0 size=N/A time=00:08:59.96 bitrate=N/A speed=13.1x    frame=13660 fps=327 q=-0.0 size=N/A time=00:09:06.40 bitrate=N/A speed=13.1x    frame=13843 fps=327 q=-0.0 size=N/A time=00:09:13.72 bitrate=N/A speed=13.1x    frame=14041 fps=328 q=-0.0 size=N/A time=00:09:21.64 bitrate=N/A speed=13.1x    frame=14240 fps=329 q=-0.0 size=N/A time=00:09:29.60 bitrate=N/A speed=13.1x    frame=14391 fps=328 q=-0.0 size=N/A time=00:09:35.64 bitrate=N/A speed=13.1x    frame=14577 fps=329 q=-0.0 size=N/A time=00:09:43.08 bitrate=N/A speed=13.2x    frame=14779 fps=329 q=-0.0 size=N/A time=00:09:51.16 bitrate=N/A speed=13.2x    frame=14941 fps=329 q=-0.0 size=N/A time=00:09:57.64 bitrate=N/A speed=13.2x    frame=15137 fps=330 q=-0.0 size=N/A time=00:10:05.48 bitrate=N/A speed=13.2x    frame=15366 fps=331 q=-0.0 size=N/A time=00:10:14.64 bitrate=N/A speed=13.2x    frame=15523 fps=331 q=-0.0 size=N/A time=00:10:20.92 bitrate=N/A speed=13.2x    frame=15722 fps=331 q=-0.0 size=N/A time=00:10:28.88 bitrate=N/A speed=13.3x    frame=15923 fps=332 q=-0.0 size=N/A time=00:10:36.92 bitrate=N/A speed=13.3x    frame=16141 fps=333 q=-0.0 size=N/A time=00:10:45.64 bitrate=N/A speed=13.3x    frame=16334 fps=333 q=-0.0 size=N/A time=00:10:53.36 bitrate=N/A speed=13.3x    frame=16552 fps=334 q=-0.0 size=N/A time=00:11:02.12 bitrate=N/A speed=13.4x    frame=16734 fps=335 q=-0.0 size=N/A time=00:11:09.36 bitrate=N/A speed=13.4x    frame=16897 fps=334 q=-0.0 size=N/A time=00:11:15.88 bitrate=N/A speed=13.4x    frame=17090 fps=335 q=-0.0 size=N/A time=00:11:23.60 bitrate=N/A speed=13.4x    frame=17295 fps=335 q=-0.0 size=N/A time=00:11:31.80 bitrate=N/A speed=13.4x    frame=17465 fps=335 q=-0.0 size=N/A time=00:11:38.60 bitrate=N/A speed=13.4x    frame=17639 fps=335 q=-0.0 size=N/A time=00:11:45.56 bitrate=N/A speed=13.4x    frame=17830 fps=336 q=-0.0 size=N/A time=00:11:53.20 bitrate=N/A speed=13.4x    frame=18037 fps=336 q=-0.0 size=N/A time=00:12:01.48 bitrate=N/A speed=13.5x    frame=18138 fps=335 q=-0.0 size=N/A time=00:12:05.52 bitrate=N/A speed=13.4x    frame=18325 fps=335 q=-0.0 size=N/A time=00:12:13.00 bitrate=N/A speed=13.4x    frame=18526 fps=336 q=-0.0 size=N/A time=00:12:21.04 bitrate=N/A speed=13.4x    frame=18713 fps=336 q=-0.0 size=N/A time=00:12:28.52 bitrate=N/A speed=13.4x    frame=18915 fps=337 q=-0.0 size=N/A time=00:12:36.60 bitrate=N/A speed=13.5x    frame=19067 fps=336 q=-0.0 size=N/A time=00:12:42.68 bitrate=N/A speed=13.4x    frame=19237 fps=336 q=-0.0 size=N/A time=00:12:49.48 bitrate=N/A speed=13.4x    frame=19470 fps=337 q=-0.0 size=N/A time=00:12:58.80 bitrate=N/A speed=13.5x    frame=19683 fps=338 q=-0.0 size=N/A time=00:13:07.32 bitrate=N/A speed=13.5x    frame=19914 fps=339 q=-0.0 size=N/A time=00:13:16.56 bitrate=N/A speed=13.6x    frame=20098 fps=339 q=-0.0 size=N/A time=00:13:23.92 bitrate=N/A speed=13.6x    frame=20304 fps=339 q=-0.0 size=N/A time=00:13:32.16 bitrate=N/A speed=13.6x    frame=20507 fps=340 q=-0.0 size=N/A time=00:13:40.28 bitrate=N/A speed=13.6x    frame=20684 fps=340 q=-0.0 size=N/A time=00:13:47.36 bitrate=N/A speed=13.6x    frame=20894 fps=341 q=-0.0 size=N/A time=00:13:55.76 bitrate=N/A speed=13.6x    frame=21111 fps=341 q=-0.0 size=N/A time=00:14:04.44 bitrate=N/A speed=13.6x    frame=21301 fps=341 q=-0.0 size=N/A time=00:14:12.04 bitrate=N/A speed=13.7x    frame=21471 fps=341 q=-0.0 size=N/A time=00:14:18.84 bitrate=N/A speed=13.7x    frame=21668 fps=342 q=-0.0 size=N/A time=00:14:26.72 bitrate=N/A speed=13.7x    frame=21891 fps=342 q=-0.0 size=N/A time=00:14:35.64 bitrate=N/A speed=13.7x    frame=22114 fps=343 q=-0.0 size=N/A time=00:14:44.56 bitrate=N/A speed=13.7x    frame=22327 fps=344 q=-0.0 size=N/A time=00:14:53.08 bitrate=N/A speed=13.7x    frame=22542 fps=344 q=-0.0 size=N/A time=00:15:01.68 bitrate=N/A speed=13.8x    frame=22727 fps=344 q=-0.0 size=N/A time=00:15:09.08 bitrate=N/A speed=13.8x    frame=22937 fps=345 q=-0.0 size=N/A time=00:15:17.48 bitrate=N/A speed=13.8x    frame=23116 fps=345 q=-0.0 size=N/A time=00:15:24.64 bitrate=N/A speed=13.8x    frame=23269 fps=345 q=-0.0 size=N/A time=00:15:30.76 bitrate=N/A speed=13.8x    frame=23419 fps=344 q=-0.0 size=N/A time=00:15:36.76 bitrate=N/A speed=13.8x    frame=23595 fps=344 q=-0.0 size=N/A time=00:15:43.80 bitrate=N/A speed=13.8x    frame=23747 fps=344 q=-0.0 size=N/A time=00:15:49.88 bitrate=N/A speed=13.7x    frame=23954 fps=344 q=-0.0 size=N/A time=00:15:58.16 bitrate=N/A speed=13.8x    frame=24125 fps=344 q=-0.0 size=N/A time=00:16:05.00 bitrate=N/A speed=13.8x    frame=24309 fps=344 q=-0.0 size=N/A time=00:16:12.36 bitrate=N/A speed=13.8x    frame=24506 fps=344 q=-0.0 size=N/A time=00:16:20.24 bitrate=N/A speed=13.8x    frame=24688 fps=344 q=-0.0 size=N/A time=00:16:27.52 bitrate=N/A speed=13.8x    frame=24886 fps=345 q=-0.0 size=N/A time=00:16:35.44 bitrate=N/A speed=13.8x    frame=25071 fps=345 q=-0.0 size=N/A time=00:16:42.84 bitrate=N/A speed=13.8x    frame=25294 fps=345 q=-0.0 size=N/A time=00:16:51.76 bitrate=N/A speed=13.8x    frame=25452 fps=345 q=-0.0 size=N/A time=00:16:58.08 bitrate=N/A speed=13.8x    frame=25637 fps=345 q=-0.0 size=N/A time=00:17:05.48 bitrate=N/A speed=13.8x    frame=25804 fps=345 q=-0.0 size=N/A time=00:17:12.16 bitrate=N/A speed=13.8x    frame=25976 fps=345 q=-0.0 size=N/A time=00:17:19.04 bitrate=N/A speed=13.8x    frame=26190 fps=346 q=-0.0 size=N/A time=00:17:27.60 bitrate=N/A speed=13.8x    frame=26370 fps=346 q=-0.0 size=N/A time=00:17:34.80 bitrate=N/A speed=13.8x    frame=26542 fps=345 q=-0.0 size=N/A time=00:17:41.68 bitrate=N/A speed=13.8x    frame=26695 fps=345 q=-0.0 size=N/A time=00:17:47.80 bitrate=N/A speed=13.8x    frame=26891 fps=345 q=-0.0 size=N/A time=00:17:55.64 bitrate=N/A speed=13.8x    frame=27105 fps=346 q=-0.0 size=N/A time=00:18:04.20 bitrate=N/A speed=13.8x    frame=27329 fps=346 q=-0.0 size=N/A time=00:18:13.16 bitrate=N/A speed=13.9x    frame=27538 fps=347 q=-0.0 size=N/A time=00:18:21.52 bitrate=N/A speed=13.9x    frame=27740 fps=347 q=-0.0 size=N/A time=00:18:29.60 bitrate=N/A speed=13.9x    frame=27925 fps=347 q=-0.0 size=N/A time=00:18:37.00 bitrate=N/A speed=13.9x    frame=28097 fps=347 q=-0.0 size=N/A time=00:18:43.88 bitrate=N/A speed=13.9x    frame=28281 fps=347 q=-0.0 size=N/A time=00:18:51.24 bitrate=N/A speed=13.9x    frame=28443 fps=347 q=-0.0 size=N/A time=00:18:57.72 bitrate=N/A speed=13.9x    frame=28608 fps=347 q=-0.0 size=N/A time=00:19:04.32 bitrate=N/A speed=13.9x    frame=28825 fps=347 q=-0.0 size=N/A time=00:19:13.00 bitrate=N/A speed=13.9x    frame=29024 fps=347 q=-0.0 size=N/A time=00:19:20.96 bitrate=N/A speed=13.9x    frame=29210 fps=348 q=-0.0 size=N/A time=00:19:28.40 bitrate=N/A speed=13.9x    frame=29433 fps=348 q=-0.0 size=N/A time=00:19:37.32 bitrate=N/A speed=13.9x    frame=29617 fps=348 q=-0.0 size=N/A time=00:19:44.68 bitrate=N/A speed=13.9x    frame=29829 fps=349 q=-0.0 size=N/A time=00:19:53.16 bitrate=N/A speed=13.9x    frame=30030 fps=349 q=-0.0 size=N/A time=00:20:01.20 bitrate=N/A speed=13.9x    frame=30225 fps=349 q=-0.0 size=N/A time=00:20:09.00 bitrate=N/A speed=  14x    frame=30408 fps=349 q=-0.0 size=N/A time=00:20:16.32 bitrate=N/A speed=  14x    frame=30574 fps=349 q=-0.0 size=N/A time=00:20:22.96 bitrate=N/A speed=  14x    frame=30781 fps=349 q=-0.0 size=N/A time=00:20:31.24 bitrate=N/A speed=  14x    frame=30991 fps=349 q=-0.0 size=N/A time=00:20:39.64 bitrate=N/A speed=  14x    frame=31182 fps=350 q=-0.0 size=N/A time=00:20:47.28 bitrate=N/A speed=  14x    frame=31371 fps=350 q=-0.0 size=N/A time=00:20:54.84 bitrate=N/A speed=  14x    frame=31559 fps=350 q=-0.0 size=N/A time=00:21:02.36 bitrate=N/A speed=  14x    frame=31774 fps=350 q=-0.0 size=N/A time=00:21:10.96 bitrate=N/A speed=  14x    frame=32010 fps=351 q=-0.0 size=N/A time=00:21:20.40 bitrate=N/A speed=  14x    frame=32173 fps=351 q=-0.0 size=N/A time=00:21:26.92 bitrate=N/A speed=  14x    frame=32321 fps=350 q=-0.0 size=N/A time=00:21:32.84 bitrate=N/A speed=  14x    frame=32489 fps=350 q=-0.0 size=N/A time=00:21:39.56 bitrate=N/A speed=  14x    frame=32746 fps=351 q=-0.0 size=N/A time=00:21:49.84 bitrate=N/A speed=  14x    frame=33025 fps=352 q=-0.0 size=N/A time=00:22:01.00 bitrate=N/A speed=14.1x    [Parsed_psnr_16 @ 000002d53135fb40] PSNR y:43.503004 u:47.542263 v:48.485147 average:44.552413 min:31.726090 max:inf
[out#0/null @ 000002d528b69200] video:14210KiB audio:248040KiB subtitle:0KiB other streams:0KiB global headers:0KiB muxing overhead: unknown
frame=33071 fps=352 q=-0.0 Lsize=N/A time=00:22:02.84 bitrate=N/A speed=14.1x    
